<svg width="20" height="20" viewBox="0 0 20 20" fill="none" xmlns="http://www.w3.org/2000/svg">
<path d="M10 0C4.48566 0 0 4.48566 0 10C0 15.5143 4.48566 20 10 20C15.5143 20 20 15.5136 20 10C20 4.48645 15.5143 0 10 0ZM10 18.4508C5.34082 18.4508 1.54918 14.66 1.54918 10C1.54918 5.34004 5.34082 1.54918 10 1.54918C14.6592 1.54918 18.4508 5.34004 18.4508 10C18.4508 14.66 14.66 18.4508 10 18.4508Z" fill="black"/>
<path d="M13.8722 9.15524H10.7739V6.05688C10.7739 5.6293 10.4276 5.28227 9.99926 5.28227C9.5709 5.28227 9.22465 5.6293 9.22465 6.05688V9.15524H6.12629C5.69793 9.15524 5.35168 9.50227 5.35168 9.92985C5.35168 10.3574 5.69793 10.7045 6.12629 10.7045H9.22465V13.8028C9.22465 14.2304 9.5709 14.5774 9.99926 14.5774C10.4276 14.5774 10.7739 14.2304 10.7739 13.8028V10.7045H13.8722C14.3006 10.7045 14.6468 10.3574 14.6468 9.92985C14.6468 9.50227 14.3006 9.15524 13.8722 9.15524Z" fill="#91A629"/>
</svg>
