<svg width="48" height="48" viewBox="0 0 48 48" fill="none" xmlns="http://www.w3.org/2000/svg">
<g filter="url(#filter0_d)">
<rect x="4" width="40" height="40" rx="10" fill="white"/>
</g>
<path d="M14 29C14 29.5523 14.4477 30 15 30L24 30C24.5523 30 25 29.5523 25 29C25 28.4477 24.5523 28 24 28L16 28L16 20C16 19.4477 15.5523 19 15 19C14.4477 19 14 19.4477 14 20L14 29ZM32.2929 10.2929L14.2929 28.2929L15.7071 29.7071L33.7071 11.7071L32.2929 10.2929Z" fill="#91A629"/>
<defs>
<filter id="filter0_d" x="0" y="0" width="48" height="48" filterUnits="userSpaceOnUse" color-interpolation-filters="sRGB">
<feFlood flood-opacity="0" result="BackgroundImageFix"/>
<feColorMatrix in="SourceAlpha" type="matrix" values="0 0 0 0 0 0 0 0 0 0 0 0 0 0 0 0 0 0 127 0"/>
<feOffset dy="4"/>
<feGaussianBlur stdDeviation="2"/>
<feColorMatrix type="matrix" values="0 0 0 0 0 0 0 0 0 0 0 0 0 0 0 0 0 0 0.25 0"/>
<feBlend mode="normal" in2="BackgroundImageFix" result="effect1_dropShadow"/>
<feBlend mode="normal" in="SourceGraphic" in2="effect1_dropShadow" result="shape"/>
</filter>
</defs>
</svg>
