<svg width="20" height="20" viewBox="0 0 20 20" fill="none" xmlns="http://www.w3.org/2000/svg">
<path d="M19.455 14.678L16.6639 11.8869C15.6671 10.8901 13.9725 11.2889 13.5738 12.5847C13.2748 13.4819 12.278 13.9803 11.3808 13.7809C9.38723 13.2825 6.69585 10.6908 6.19744 8.59746C5.8984 7.70029 6.49649 6.70349 7.39361 6.40448C8.68946 6.00576 9.08819 4.31119 8.09138 3.31438L5.30032 0.523324C4.50287 -0.174441 3.3067 -0.174441 2.60894 0.523324L0.715007 2.41726C-1.17893 4.41087 0.914368 9.69395 5.59936 14.3789C10.2844 19.0639 15.5674 21.2569 17.561 19.2633L19.455 17.3694C20.1528 16.5719 20.1528 15.3757 19.455 14.678Z" fill="#A80A0F"/>
</svg>
