<svg width="20" height="20" viewBox="0 0 20 20" fill="none" xmlns="http://www.w3.org/2000/svg">
<g clip-path="url(#clip0)">
<path d="M12.1097 7.65625C10.2142 7.65625 8.67218 9.1983 8.67218 11.0938C8.67218 12.9892 10.2142 14.5312 12.1097 14.5312C14.0051 14.5312 15.5472 12.9892 15.5472 11.0938C15.5472 9.1983 14.0051 7.65625 12.1097 7.65625ZM12.1097 13.75C10.645 13.75 9.45343 12.5584 9.45343 11.0938C9.45343 9.62906 10.645 8.4375 12.1097 8.4375C13.5744 8.4375 14.7659 9.62906 14.7659 11.0938C14.7659 12.5584 13.5744 13.75 12.1097 13.75Z" fill="#91A629"/>
<path d="M12.1097 9.33591C11.8939 9.33591 11.7191 9.51077 11.7191 9.72653C11.7191 9.94229 11.8939 10.1172 12.1097 10.1172C12.648 10.1172 13.0861 10.5552 13.0861 11.0936C13.0861 11.3093 13.261 11.4842 13.4767 11.4842C13.6925 11.4842 13.8673 11.3093 13.8673 11.0936C13.8673 10.1243 13.0789 9.33591 12.1097 9.33591Z" fill="#91A629"/>
<path d="M2.40822 4.03909C2.30903 3.84759 2.07344 3.77267 1.88179 3.8717C1.69014 3.97088 1.61522 4.20663 1.7144 4.39828L2.76588 6.42953C2.83394 6.56106 2.97157 6.64148 3.11867 6.64056C3.26668 6.63827 3.4008 6.55252 3.46489 6.419L4.10148 5.09362L4.79286 6.42953C4.86015 6.55923 4.99397 6.64056 5.13985 6.64056H5.14564C5.29381 6.63827 5.42778 6.55252 5.49202 6.419L6.46751 4.38775C6.5609 4.19335 6.47896 3.95989 6.28456 3.86651C6.09001 3.77313 5.8567 3.85507 5.76332 4.04962L5.12672 5.375L4.43519 4.03909C4.36714 3.90756 4.22981 3.82684 4.08256 3.82806C3.9344 3.83035 3.80028 3.9161 3.73619 4.04962L3.09974 5.375L2.40822 4.03909Z" fill="black"/>
<path d="M4.9213 1.875C5.02414 1.875 5.12485 1.83319 5.19748 1.76056C5.27026 1.68793 5.31192 1.58707 5.31192 1.48438C5.31192 1.38168 5.27026 1.28082 5.19748 1.20819C5.12485 1.13556 5.02414 1.09375 4.9213 1.09375C4.8186 1.09375 4.7179 1.13556 4.64526 1.20819C4.57248 1.28082 4.53067 1.38168 4.53067 1.48438C4.53067 1.58707 4.57248 1.68793 4.64526 1.76056C4.7179 1.83319 4.8186 1.875 4.9213 1.875Z" fill="black"/>
<path d="M20 7.8125V2.65625C20 1.79474 19.299 1.09375 18.4375 1.09375H6.56204C6.34644 1.09375 6.17142 1.26862 6.17142 1.48438C6.17142 1.70013 6.34644 1.875 6.56204 1.875H18.4375C18.8683 1.875 19.2188 2.22549 19.2188 2.65625V7.8125C19.2188 8.24326 18.8683 8.59375 18.4375 8.59375H16.5625C16.5512 8.59375 16.5402 8.59451 16.5292 8.59543C15.9264 7.53311 14.9518 6.70853 13.7834 6.29944L14.3625 5.09384L15.054 6.4296C15.1212 6.55945 15.255 6.64062 15.4008 6.64062H15.4068C15.5548 6.63834 15.6889 6.55258 15.753 6.41907L16.7285 4.38782C16.8219 4.19342 16.74 3.96011 16.5456 3.86673C16.3512 3.77319 16.1177 3.85513 16.0243 4.04968L15.3879 5.37506L14.6964 4.03915C14.6283 3.90762 14.4911 3.8269 14.3436 3.82828C14.1954 3.83041 14.0614 3.91617 13.9973 4.04968L13.3607 5.37506L12.6694 4.03915C12.5702 3.84766 12.3344 3.77274 12.1428 3.87192C11.9511 3.9711 11.8764 4.2067 11.9754 4.39835L12.84 6.06842C12.6015 6.03394 12.3576 6.01562 12.1097 6.01562C11.6295 6.01562 11.1646 6.08276 10.7239 6.20789L11.5981 4.38782C11.6914 4.19342 11.6095 3.96011 11.4149 3.86673C11.2206 3.77319 10.9871 3.85513 10.8939 4.04968L10.2573 5.37506L9.56573 4.03915C9.49768 3.90762 9.36111 3.8269 9.21295 3.82828C9.06494 3.83041 8.93082 3.91617 8.86673 4.04968L8.23029 5.37506L7.53876 4.03915C7.43958 3.84766 7.20398 3.77274 7.01233 3.87192C6.82068 3.9711 6.74576 4.2067 6.84494 4.39835L7.89642 6.4296C7.96448 6.56113 8.1015 6.64154 8.24921 6.64062C8.39722 6.63834 8.53134 6.55258 8.59543 6.41907L9.23203 5.09384L9.9234 6.4296C9.935 6.45203 9.94919 6.47232 9.9646 6.4917C9.00665 6.94 8.21075 7.67853 7.69089 8.59375H1.5625C1.13174 8.59375 0.78125 8.24326 0.78125 7.8125V2.65625C0.78125 2.22549 1.13174 1.875 1.5625 1.875H3.16376C3.37952 1.875 3.55438 1.70013 3.55438 1.48438C3.55438 1.26862 3.37952 1.09375 3.16376 1.09375H1.5625C0.700989 1.09375 0 1.79474 0 2.65625V7.8125C0 8.67416 0.700989 9.375 1.5625 9.375H7.33109C7.1373 9.91211 7.0314 10.4907 7.0314 11.0938C7.0314 13.8939 9.30939 16.1719 12.1095 16.1719C13.0296 16.1719 13.8934 15.9259 14.6385 15.4962L17.7388 18.5965C17.997 18.8547 18.3362 18.9838 18.6754 18.9838C19.0146 18.9838 19.3538 18.8547 19.612 18.5965C20.1285 18.08 20.1285 17.2397 19.612 16.7232L18.3939 15.5051C18.2413 15.3526 17.9939 15.3525 17.8415 15.5051C17.6889 15.6577 17.6889 15.9048 17.8415 16.0574L19.0596 17.2757C19.2714 17.4875 19.2714 17.8322 19.0596 18.0441C18.8478 18.2559 18.5031 18.2559 18.2913 18.0441L15.2937 15.0464C16.4479 14.1148 17.1877 12.6892 17.1877 11.0938C17.1877 10.4907 17.0818 9.91211 16.888 9.375H18.4375C19.2992 9.375 20 8.67401 20 7.8125ZM12.1095 15.3906C9.7403 15.3906 7.81265 13.463 7.81265 11.0938C7.81265 8.72452 9.7403 6.79688 12.1095 6.79688C14.4788 6.79688 16.4064 8.72452 16.4064 11.0938C16.4064 13.463 14.4789 15.3906 12.1095 15.3906Z" fill="black"/>
<path d="M16.9149 14.5786C16.8422 14.6513 16.8004 14.752 16.8004 14.8548C16.8004 14.9575 16.8422 15.0582 16.9149 15.131C16.9879 15.2036 17.0883 15.2455 17.191 15.2455C17.2937 15.2455 17.3946 15.2036 17.4672 15.131C17.5403 15.0582 17.5817 14.9575 17.5817 14.8548C17.5817 14.752 17.5403 14.6513 17.4672 14.5786C17.3946 14.506 17.2942 14.4642 17.191 14.4642C17.0883 14.4642 16.9875 14.506 16.9149 14.5786Z" fill="black"/>
</g>
<defs>
<clipPath id="clip0">
<rect width="20" height="20" fill="white"/>
</clipPath>
</defs>
</svg>
