<svg width="22" height="26" viewBox="0 0 22 26" fill="none" xmlns="http://www.w3.org/2000/svg">
<path d="M20.8082 9.02683L15.7254 7.05808C15.9912 6.30271 16.0721 5.49461 15.9612 4.70154C15.8503 3.90847 15.5509 3.15354 15.0881 2.50003C14.6253 1.84653 14.0125 1.31351 13.3013 0.945644C12.59 0.577782 11.8008 0.385803 11.0001 0.385803C10.1993 0.385803 9.41016 0.577782 8.69887 0.945644C7.98758 1.31351 7.37484 1.84653 6.91203 2.50003C6.44922 3.15354 6.14983 3.90847 6.03894 4.70154C5.92806 5.49461 6.00892 6.30271 6.27475 7.05808L1.19194 9.02683C1.08934 9.06686 1.00121 9.13693 0.939095 9.22787C0.87698 9.31881 0.843769 9.42639 0.843811 9.53652V21.3265C0.84378 21.4368 0.877099 21.5445 0.939394 21.6356C1.00169 21.7266 1.09005 21.7966 1.19287 21.8365L10.8022 25.5615C10.8654 25.5859 10.9324 25.5984 11.0001 25.5984C11.067 25.597 11.1331 25.5833 11.1951 25.5578L11.1979 25.5615L20.8082 21.8365C20.9108 21.7965 20.999 21.7264 21.0611 21.6354C21.1232 21.5443 21.1564 21.4367 21.1563 21.3265V9.53652C21.1564 9.42639 21.1231 9.31881 21.061 9.22787C20.9989 9.13693 20.9108 9.06686 20.8082 9.02683ZM19.0973 9.53652L17.3232 10.224L14.3832 9.09277C14.7181 8.78459 15.0097 8.43243 15.2501 8.0459L19.0973 9.53652ZM13.3076 9.8509L15.8076 10.8125L14.396 11.3593L11.8066 10.3478C12.3302 10.2632 12.8369 10.0955 13.3076 9.8509ZM15.0091 12.2943L16.8457 11.5825V13.8609L16.5385 13.6606C16.4311 13.5906 16.3025 13.5606 16.1751 13.5758C16.0478 13.591 15.9299 13.6504 15.8419 13.7437L15.0091 14.6275V12.2943ZM11.0001 1.4934C11.7745 1.4934 12.5315 1.72304 13.1755 2.1533C13.8194 2.58355 14.3213 3.19509 14.6176 3.91058C14.914 4.62606 14.9915 5.41337 14.8404 6.17292C14.6894 6.93248 14.3164 7.63018 13.7688 8.17779C13.2212 8.7254 12.5235 9.09832 11.764 9.24941C11.0044 9.40049 10.2171 9.32295 9.50162 9.02659C8.78613 8.73022 8.17459 8.22835 7.74434 7.58443C7.31408 6.94051 7.08444 6.18346 7.08444 5.40902C7.08559 4.37089 7.4985 3.37561 8.23257 2.64154C8.96665 1.90747 9.96193 1.49456 11.0001 1.4934ZM7.06256 8.4934L6.33069 8.20746L6.74975 8.04496C6.84577 8.20033 6.95019 8.34941 7.06256 8.4934ZM4.82225 8.79215L12.886 11.9443L11.0001 12.6753L2.90287 9.53652L4.82225 8.79215ZM1.93756 20.9518V10.3353L10.4532 13.6365V24.2531L1.93756 20.9518ZM11.5469 24.2531V13.6365L13.9154 12.7178V16.0056C13.9154 16.1151 13.9484 16.2221 14.0099 16.3127C14.0715 16.4033 14.1589 16.4733 14.2607 16.5137C14.3248 16.5394 14.3932 16.5525 14.4623 16.5525C14.5368 16.5525 14.6106 16.5373 14.6791 16.5077C14.7476 16.4781 14.8092 16.4349 14.8604 16.3806L16.3244 14.8265L17.0941 15.3265C17.1766 15.3798 17.272 15.41 17.3701 15.4137C17.4683 15.4175 17.5656 15.3947 17.652 15.3478C17.7383 15.301 17.8104 15.2317 17.8607 15.1474C17.911 15.063 17.9377 14.9666 17.9379 14.8684V11.1584L20.0626 10.3353V20.9518L11.5469 24.2531Z" fill="black"/>
<path d="M10.0255 7.01845C10.1264 7.10381 10.2547 7.14977 10.3869 7.14781C10.519 7.14586 10.646 7.09613 10.7443 7.00782L13.3964 4.62408C13.4526 4.57688 13.4988 4.51885 13.5321 4.45344C13.5654 4.38804 13.5852 4.3166 13.5903 4.24338C13.5954 4.17017 13.5857 4.09667 13.5618 4.02727C13.538 3.95788 13.5003 3.894 13.4512 3.83944C13.4021 3.78489 13.3426 3.74078 13.2761 3.70973C13.2096 3.67869 13.1375 3.66135 13.0641 3.65875C12.9908 3.65615 12.9177 3.66834 12.8491 3.6946C12.7806 3.72085 12.718 3.76064 12.6652 3.81158L10.3677 5.87689L9.32144 4.99251C9.21068 4.89886 9.06724 4.85304 8.92269 4.86514C8.77814 4.87725 8.64432 4.94627 8.55066 5.05704C8.45701 5.16781 8.41119 5.31125 8.42329 5.4558C8.4354 5.60035 8.50443 5.73417 8.61519 5.82782L10.0255 7.01845Z" fill="#ABC32F"/>
</svg>
