<svg width="17" height="17" viewBox="0 0 17 17" fill="none" xmlns="http://www.w3.org/2000/svg">
<g clip-path="url(#clip0)">
<path d="M13.2812 17H3.71875C2.84042 17 2.125 16.2853 2.125 15.4062V7.96875C2.125 7.08971 2.84042 6.375 3.71875 6.375H13.2812C14.1596 6.375 14.875 7.08971 14.875 7.96875V15.4062C14.875 16.2853 14.1596 17 13.2812 17ZM3.71875 7.4375C3.42621 7.4375 3.1875 7.6755 3.1875 7.96875V15.4062C3.1875 15.6995 3.42621 15.9375 3.71875 15.9375H13.2812C13.5738 15.9375 13.8125 15.6995 13.8125 15.4062V7.96875C13.8125 7.6755 13.5738 7.4375 13.2812 7.4375H3.71875Z" fill="#ED1D24"/>
<path d="M12.2188 7.4375C11.9255 7.4375 11.6875 7.1995 11.6875 6.90625V4.25C11.6875 2.49262 10.2574 1.0625 8.5 1.0625C6.74262 1.0625 5.3125 2.49262 5.3125 4.25V6.90625C5.3125 7.1995 5.0745 7.4375 4.78125 7.4375C4.488 7.4375 4.25 7.1995 4.25 6.90625V4.25C4.25 1.90612 6.15612 0 8.5 0C10.8439 0 12.75 1.90612 12.75 4.25V6.90625C12.75 7.1995 12.512 7.4375 12.2188 7.4375Z" fill="#ED1D24"/>
<path d="M8.50004 12.0414C7.71875 12.0414 7.08337 11.4061 7.08337 10.6248C7.08337 9.84347 7.71875 9.2081 8.50004 9.2081C9.28133 9.2081 9.91671 9.84347 9.91671 10.6248C9.91671 11.4061 9.28133 12.0414 8.50004 12.0414ZM8.50004 10.2706C8.30525 10.2706 8.14587 10.4293 8.14587 10.6248C8.14587 10.8203 8.30525 10.9789 8.50004 10.9789C8.69483 10.9789 8.85421 10.8203 8.85421 10.6248C8.85421 10.4293 8.69483 10.2706 8.50004 10.2706Z" fill="#ED1D24"/>
<path d="M8.5 14.1667C8.20675 14.1667 7.96875 13.9287 7.96875 13.6354V11.6875C7.96875 11.3942 8.20675 11.1562 8.5 11.1562C8.79325 11.1562 9.03125 11.3942 9.03125 11.6875V13.6354C9.03125 13.9287 8.79325 14.1667 8.5 14.1667Z" fill="#ED1D24"/>
</g>
<defs>
<clipPath id="clip0">
<rect width="17" height="17" fill="white"/>
</clipPath>
</defs>
</svg>
