<svg width="22" height="22" viewBox="0 0 22 22" fill="none" xmlns="http://www.w3.org/2000/svg">
<g clip-path="url(#clip0)">
<path d="M12.7615 6.52922C12.5239 6.52922 12.3312 6.72174 12.3312 6.95891C12.3312 7.19591 12.5239 7.38843 12.7615 7.38843C12.9992 7.38843 13.1919 7.19591 13.1919 6.95891C13.1919 6.72174 12.9992 6.52922 12.7615 6.52922Z" fill="black"/>
<path d="M10.1516 14.9218C10.3197 14.7538 10.3197 14.4819 10.1516 14.3139C9.98347 14.1463 9.71103 14.1463 9.54269 14.3139C9.37485 14.4819 9.37485 14.7538 9.54269 14.9218C9.71103 15.0893 9.98347 15.0893 10.1516 14.9218Z" fill="black"/>
<path d="M4.9792 21.873C5.14603 22.0408 5.41763 22.0427 5.58665 21.8765L7.67337 19.8247C8.02788 19.4709 8.13568 18.9471 7.97978 18.4917L8.42864 18.0597C8.67031 17.8267 8.98849 17.6983 9.32485 17.6983H15.0467C16.0618 17.6983 17.0212 17.3092 17.7486 16.6028C17.7785 16.5737 17.5214 16.876 21.6521 11.9487C22.2647 11.2253 22.1731 10.139 21.4476 9.52684C20.7266 8.92041 19.6466 9.00752 19.0323 9.71852L16.4925 12.3238C16.1718 11.9299 15.6827 11.6843 15.1543 11.6843H10.3547C9.67179 11.3992 8.94712 11.2548 8.19942 11.2548C6.1275 11.2548 4.31743 12.2095 3.34588 14.0015C2.93671 13.9241 2.50518 14.0476 2.19472 14.3575L0.147192 16.407C-0.0199746 16.5744 -0.0203109 16.8451 0.146519 17.0128L4.9792 21.873ZM8.19925 12.1139C8.8585 12.1139 9.49588 12.2463 10.0941 12.5075C10.1486 12.5313 10.2073 12.5435 10.2666 12.5435H15.1543C15.621 12.5435 16.0152 12.9234 16.0152 13.4026C16.0152 13.8764 15.6291 14.2618 15.1543 14.2618H11.6426C11.405 14.2618 11.2123 14.4541 11.2123 14.6913C11.2123 14.9287 11.405 15.1208 11.6426 15.1208H15.1543C16.1036 15.1208 16.8759 14.3501 16.8759 13.4026C16.8759 13.3271 16.8705 13.2522 16.8608 13.178C19.3176 10.6575 19.6641 10.3033 19.6789 10.2857C19.9856 9.9243 20.5302 9.87848 20.8924 10.1833C21.255 10.4893 21.3009 11.0324 20.9933 11.3958L17.1329 16.0019C16.5692 16.542 15.829 16.8393 15.0467 16.8393H9.32485C8.76415 16.8393 8.23339 17.0533 7.83078 17.4415L7.465 17.7938L4.09308 14.4286C4.88115 12.9531 6.35992 12.1139 8.19925 12.1139ZM2.80385 14.9646C2.94579 14.8229 3.16375 14.7974 3.3368 14.9041C3.40256 14.9441 7.08391 18.6273 7.10662 18.6577C7.23258 18.8271 7.21458 19.0676 7.06709 19.215L5.28814 20.9641L1.05904 16.711L2.80385 14.9646Z" fill="black"/>
<path d="M6.73583 9.10686H17.0657C17.7777 9.10686 18.3569 8.5288 18.3569 7.81813C18.3569 6.73535 18.3569 2.06737 18.3569 1.28873C18.3569 0.578064 17.7777 0 17.0657 0H6.73583C6.02378 0 5.44458 0.578064 5.44458 1.28873V7.81813C5.44458 8.5288 6.02378 9.10686 6.73583 9.10686ZM17.496 3.43649H6.30547V2.57745H17.496V3.43649ZM17.0657 8.24782H6.73583C6.49853 8.24782 6.30547 8.05497 6.30547 7.81813V4.2957H17.496V7.81813C17.496 8.05497 17.3029 8.24782 17.0657 8.24782ZM6.73583 0.859208H17.0657C17.3029 0.859208 17.496 1.0519 17.496 1.28873V1.71825H6.30547V1.28873C6.30547 1.0519 6.49853 0.859208 6.73583 0.859208Z" fill="#91A629"/>
<path d="M16.2046 6.52922H14.4829C14.2453 6.52922 14.0526 6.72157 14.0526 6.95891C14.0526 7.19608 14.2453 7.38843 14.4829 7.38843H16.2046C16.4424 7.38843 16.6351 7.19608 16.6351 6.95891C16.6351 6.72157 16.4424 6.52922 16.2046 6.52922Z" fill="black"/>
</g>
<defs>
<clipPath id="clip0">
<rect width="22" height="22" fill="white"/>
</clipPath>
</defs>
</svg>
