<svg width="24" height="24" viewBox="0 0 24 24" fill="none" xmlns="http://www.w3.org/2000/svg">
<g clip-path="url(#clip0)">
<path d="M10.5255 14.039C10.5487 14.0686 10.5711 14.099 10.5935 14.1298C10.5711 14.099 10.5487 14.0686 10.5255 14.039Z" fill="#78B9EB"/>
<path d="M10.2807 13.7538C10.2971 13.7706 10.3115 13.7886 10.3275 13.8058C10.3115 13.7886 10.2971 13.7706 10.2807 13.7538Z" fill="#78B9EB"/>
<path d="M10.754 14.3741C10.7684 14.3985 10.7845 14.4221 10.7984 14.4469C10.7844 14.4221 10.7684 14.3997 10.754 14.3741Z" fill="#78B9EB"/>
<path d="M10.9609 14.786C10.9717 14.8128 10.9805 14.8408 10.9909 14.866C10.9805 14.8408 10.9717 14.8127 10.9609 14.786Z" fill="#78B9EB"/>
<path d="M9.92847 13.4479C9.95369 13.4672 9.98008 13.4855 10.0049 13.5051C9.98003 13.4852 9.95364 13.4672 9.92847 13.4479Z" fill="#78B9EB"/>
<path d="M9.59558 13.2278C9.62797 13.2463 9.65956 13.2678 9.69158 13.2858C9.65956 13.2662 9.62797 13.2466 9.59558 13.2278Z" fill="#78B9EB"/>
<path d="M9.80725 18.6406C10.0436 18.4919 10.2653 18.3214 10.4696 18.1311C10.526 18.0779 10.5756 18.0171 10.6165 17.9511C10.8356 17.5975 10.9976 17.2115 11.0965 16.8074C10.9016 17.5538 10.444 18.2051 9.80725 18.6406Z" fill="#78B9EB"/>
<path d="M8.39728 12.8273C8.43529 12.8318 8.47246 12.8386 8.50968 12.8446C8.47246 12.8401 8.43529 12.8318 8.39728 12.8273Z" fill="#78B9EB"/>
<path d="M9.25909 13.057C9.27311 13.063 9.28591 13.0706 9.29908 13.0766C9.28591 13.0706 9.27306 13.063 9.25909 13.057Z" fill="#78B9EB"/>
<path d="M11.082 15.1519C11.0924 15.1895 11.102 15.2271 11.1112 15.2651C11.102 15.2271 11.0924 15.1895 11.082 15.1519Z" fill="#78B9EB"/>
<path d="M7.98521 19.2009C7.89441 19.2009 7.806 19.1917 7.71722 19.1837C7.806 19.191 7.89441 19.2009 7.98521 19.2009Z" fill="#78B9EB"/>
<path d="M8.81063 19.0927L8.76263 19.1052L8.81063 19.0927Z" fill="#78B9EB"/>
<path d="M11.1709 15.5816C11.1741 15.6052 11.1789 15.628 11.1817 15.6516C11.1789 15.628 11.1741 15.6052 11.1709 15.5816Z" fill="#78B9EB"/>
<path d="M7.58645 19.1742C7.45684 19.157 7.32803 19.133 7.20123 19.1014C7.32803 19.133 7.45684 19.157 7.58645 19.1742Z" fill="#78B9EB"/>
<path d="M8.4171 19.1716C8.39868 19.174 8.38152 19.1776 8.3631 19.1796C8.3811 19.1776 8.3991 19.174 8.4171 19.1716Z" fill="#78B9EB"/>
<path d="M9.75761 18.6758C9.7008 18.713 9.64239 18.7478 9.58319 18.7818C9.64361 18.7498 9.69963 18.7118 9.75761 18.6758Z" fill="#78B9EB"/>
<path d="M11.1998 16.0473C11.1998 16.082 11.1962 16.1161 11.1946 16.1505C11.1962 16.1161 11.1995 16.0796 11.1998 16.0473Z" fill="#78B9EB"/>
<path d="M11.1644 16.4557C11.1576 16.5029 11.1516 16.5504 11.1428 16.5968C11.1513 16.5496 11.1581 16.5029 11.1644 16.4557Z" fill="#78B9EB"/>
<path d="M8.79987 12.9047C8.83427 12.9135 8.86906 12.9211 8.90309 12.9311C8.86906 12.9211 8.83427 12.9135 8.79987 12.9047Z" fill="#78B9EB"/>
<path d="M1.19742 17.5992H1.63743C1.96902 17.5992 2.26542 17.8048 2.38223 18.1152C2.42784 18.2352 2.47701 18.3532 2.52984 18.4692C2.66826 18.7716 2.60465 19.128 2.36985 19.3636L2.05743 19.6792C1.74585 19.9917 1.74585 20.4972 2.05743 20.8096L3.18782 21.94C3.50024 22.2516 4.00584 22.2516 4.31821 21.94L4.63223 21.6272C4.86782 21.3924 5.22421 21.3288 5.52665 21.4672C5.64267 21.5204 5.76065 21.5696 5.88065 21.6148C6.19106 21.7312 6.39707 22.0276 6.39745 22.3593V22.7993C6.39745 23.2413 6.75543 23.5993 7.19746 23.5993H8.79745C9.23943 23.5993 9.59746 23.2413 9.59746 22.7993V22.3593C9.59746 22.0277 9.80306 21.7313 10.1135 21.6145C10.2335 21.5689 10.3514 21.5197 10.4675 21.4669C10.7699 21.3284 11.1262 21.392 11.3619 21.6268L11.6759 21.9396C11.9883 22.2512 12.4939 22.2512 12.8063 21.9396L13.9367 20.8092C14.2483 20.4968 14.2483 19.9912 13.9367 19.6789L13.6239 19.3648C13.3891 19.1292 13.3255 18.7729 13.4639 18.4704C13.5171 18.3544 13.5663 18.2364 13.6115 18.1164C13.7279 17.8052 14.0251 17.5992 14.3575 17.5992H14.7975C15.2395 17.5992 15.5976 17.2412 15.5976 16.7992V15.1992C15.5976 14.7572 15.2396 14.3992 14.7975 14.3992H14.3575C14.0259 14.3992 13.7295 14.1936 13.6127 13.8832C13.5671 13.7632 13.5179 13.6452 13.4651 13.5292C13.3263 13.2268 13.3903 12.8704 13.6251 12.6348L13.9379 12.3207C14.2495 12.0083 14.2495 11.5027 13.9379 11.1904L12.8074 10.06C12.495 9.74839 11.9894 9.74839 11.677 10.06L11.363 10.3728C11.1274 10.6076 10.771 10.6712 10.4686 10.5327C10.3526 10.4795 10.2346 10.4303 10.1146 10.3851C9.80338 10.2687 9.59737 9.97156 9.59737 9.63912V9.19911C9.59737 8.75712 9.23938 8.39909 8.79735 8.39909H7.19742C6.75543 8.39909 6.3974 8.75708 6.3974 9.19911V9.63912C6.3974 9.97072 6.19181 10.2671 5.8814 10.3839C5.7614 10.4295 5.64342 10.4787 5.5274 10.5315C5.22501 10.67 4.86862 10.6063 4.63298 10.3715L4.31737 10.0591C4.00495 9.74755 3.49935 9.74755 3.18698 10.0591L2.05818 11.1903C1.7466 11.5027 1.7466 12.0083 2.05818 12.3207L2.37098 12.6347C2.60577 12.8703 2.66976 13.2267 2.53096 13.5291C2.47776 13.6452 2.42854 13.7631 2.38335 13.8831C2.26654 14.1939 1.96935 14.3996 1.63734 14.3991H1.19742C0.755431 14.3991 0.3974 14.7571 0.3974 15.1992V16.7992C0.3974 17.2412 0.755431 17.5992 1.19742 17.5992ZM7.19742 12.8992C7.45902 12.8332 7.72781 12.7996 7.99743 12.7992C8.12985 12.8 8.26223 12.8092 8.39385 12.8264C8.43187 12.8308 8.46904 12.8376 8.50626 12.8436C8.60348 12.8588 8.69868 12.8788 8.79267 12.9028C8.82707 12.9116 8.86185 12.9192 8.89588 12.9292C9.01748 12.964 9.13668 13.006 9.25307 13.0552C9.26709 13.0612 9.27988 13.0688 9.29306 13.0748C9.39463 13.12 9.49387 13.1708 9.59024 13.2264C9.62263 13.2452 9.65423 13.2664 9.68624 13.2844C9.76626 13.3352 9.84623 13.3895 9.92226 13.4468C9.94748 13.466 9.97387 13.484 9.99866 13.504C10.0951 13.5815 10.1875 13.6644 10.2747 13.752C10.2911 13.7688 10.3055 13.7868 10.3214 13.804C10.3919 13.878 10.4586 13.9556 10.5215 14.0364C10.5447 14.0659 10.5671 14.0964 10.5895 14.1272C10.6467 14.2072 10.7007 14.2872 10.7495 14.3736C10.7639 14.398 10.7799 14.4216 10.7939 14.4464C10.8546 14.5556 10.9086 14.6688 10.9563 14.7844C10.9671 14.8112 10.9759 14.8388 10.9863 14.8644C11.0215 14.9576 11.0527 15.0524 11.0791 15.1492C11.0895 15.1868 11.0991 15.2244 11.1083 15.2624C11.1327 15.3668 11.1519 15.4724 11.1659 15.5788C11.1691 15.6024 11.1739 15.6252 11.1767 15.6488C11.1899 15.7652 11.1971 15.882 11.1975 15.9992C11.1975 16.0152 11.1975 16.0308 11.1951 16.0468C11.1951 16.0808 11.1915 16.1156 11.1899 16.15C11.1851 16.2528 11.1759 16.3544 11.1615 16.4548C11.1551 16.502 11.1483 16.5488 11.1399 16.596C11.1263 16.6676 11.1087 16.7372 11.0907 16.8072C10.9919 17.2112 10.8299 17.5972 10.6107 17.9508C10.5699 18.0168 10.5202 18.0776 10.4639 18.1308C10.2603 18.3204 10.0391 18.4908 9.80343 18.6392L9.75145 18.6732C9.69346 18.7092 9.63543 18.7472 9.57702 18.7792C9.33501 18.9164 9.07621 19.0208 8.80701 19.0908L8.75901 19.1032C8.64421 19.1312 8.5282 19.1532 8.41101 19.1684C8.39301 19.1708 8.37501 19.1744 8.35701 19.1764C8.23781 19.1908 8.11743 19.1984 7.99743 19.1992H7.98262C7.89182 19.1992 7.80342 19.19 7.71463 19.182C7.67104 19.178 7.62585 19.1784 7.58263 19.1728C7.45302 19.1556 7.32421 19.1308 7.19742 19.0992C5.4854 18.6564 4.45621 16.9096 4.89899 15.1976C5.1906 14.0704 6.07063 13.1908 7.19742 12.8992Z" fill="#ABC32F"/>
<path d="M10.7937 14.4485C10.8545 14.5577 10.9085 14.6709 10.9561 14.7865C10.9085 14.6709 10.8545 14.5577 10.7937 14.4485Z" fill="#78B9EB"/>
<path d="M10.9905 14.8673C11.0257 14.9605 11.057 15.0553 11.0834 15.1521C11.057 15.0553 11.0257 14.9605 10.9905 14.8673Z" fill="#78B9EB"/>
<path d="M11.1993 16.0024C11.1989 15.886 11.1925 15.7696 11.1797 15.6536C11.1937 15.7852 11.1993 15.9176 11.1969 16.05C11.1993 16.034 11.1993 16.0184 11.1993 16.0024Z" fill="#78B9EB"/>
<path d="M11.1085 15.2649C11.1329 15.3693 11.1521 15.4749 11.1661 15.5813C11.1521 15.4749 11.1329 15.3693 11.1085 15.2649Z" fill="#78B9EB"/>
<path d="M8.50769 12.8458C8.60491 12.861 8.70011 12.881 8.7941 12.905C8.70011 12.8814 8.60491 12.861 8.50769 12.8458Z" fill="#78B9EB"/>
<path d="M8.00073 12.801C8.13316 12.8018 8.26553 12.811 8.39716 12.8282C8.26553 12.811 8.13311 12.8018 8.00073 12.801Z" fill="#78B9EB"/>
<path d="M9.2934 13.075C9.39497 13.1202 9.49421 13.1706 9.59058 13.2266C9.49416 13.171 9.39497 13.1202 9.2934 13.075Z" fill="#78B9EB"/>
<path d="M8.89587 12.9305C9.01747 12.9653 9.13667 13.0073 9.25306 13.0565C9.13667 13.0073 9.01747 12.9653 8.89587 12.9305Z" fill="#78B9EB"/>
<path d="M10.588 14.1292C10.6452 14.2092 10.6992 14.2891 10.748 14.3756C10.6992 14.2908 10.6452 14.2084 10.588 14.1292Z" fill="#78B9EB"/>
<path d="M10.3244 13.8059C10.3944 13.8799 10.4612 13.9575 10.5244 14.0383C10.4616 13.9575 10.3948 13.8799 10.3244 13.8059Z" fill="#78B9EB"/>
<path d="M9.68854 13.2864C9.76855 13.3372 9.84852 13.3915 9.92455 13.4488C9.84815 13.3915 9.76973 13.3371 9.68854 13.2864Z" fill="#78B9EB"/>
<path d="M9.99957 13.5061C10.0964 13.5833 10.1884 13.6661 10.2756 13.7541C10.1884 13.6665 10.096 13.5837 9.99957 13.5061Z" fill="#78B9EB"/>
<path d="M9.57641 18.7823C9.33322 18.9171 9.0748 19.0215 8.8064 19.0938C9.0756 19.0239 9.3344 18.9195 9.57641 18.7823Z" fill="#78B9EB"/>
<path d="M8.75871 19.1055C8.64391 19.1335 8.52789 19.1555 8.41071 19.1707C8.52789 19.1555 8.64391 19.1335 8.75871 19.1055Z" fill="#78B9EB"/>
<path d="M7.99999 19.2C8.12041 19.1995 8.24041 19.1924 8.35998 19.1783C8.23558 19.1927 8.1108 19.1995 7.9856 19.1992L7.99999 19.2Z" fill="#78B9EB"/>
<path d="M7.7158 19.1829C7.67221 19.179 7.62702 19.1793 7.5838 19.1738C7.62697 19.1793 7.67216 19.179 7.7158 19.1829Z" fill="#78B9EB"/>
<path d="M11.1916 16.1529C11.1872 16.2537 11.1772 16.3553 11.1632 16.4577C11.1776 16.3573 11.1868 16.2557 11.1916 16.1529Z" fill="#78B9EB"/>
<path d="M9.80473 18.6418C9.78753 18.653 9.77033 18.665 9.75275 18.6758L9.80473 18.6418Z" fill="#78B9EB"/>
<path d="M11.1395 16.5975C11.1268 16.6675 11.1075 16.7383 11.0903 16.8087C11.1083 16.7387 11.1259 16.6691 11.1395 16.5975Z" fill="#78B9EB"/>
<path d="M14.8 13.9992H14.36C14.1944 13.9996 14.0464 13.8964 13.9896 13.7408C13.9408 13.6128 13.8884 13.4876 13.832 13.3636C13.762 13.2128 13.794 13.0344 13.912 12.9172L14.2256 12.6032C14.6912 12.1336 14.6904 11.376 14.2236 10.9076L13.0932 9.77719C12.624 9.31078 11.8664 9.31078 11.3972 9.77719L11.0836 10.0904C10.9664 10.208 10.788 10.24 10.6372 10.1704C10.5132 10.114 10.388 10.0616 10.2596 10.0104C10.1032 9.95405 9.99961 9.80522 10 9.63924V9.19922C10 8.53641 9.46284 7.99922 8.80003 7.99922H7.2C6.53719 7.99922 6 8.53641 6 9.19922V9.63924C6.00042 9.80485 5.8972 9.95283 5.74158 10.0096C5.61356 10.0584 5.48836 10.1108 5.36438 10.1672C5.21358 10.2368 5.03517 10.2048 4.91798 10.0872L4.60397 9.77363C4.13475 9.30764 3.37758 9.30764 2.90836 9.77363L1.77797 10.9076C1.31156 11.3768 1.31156 12.1344 1.77797 12.6036L2.09119 12.9172C2.20917 13.0344 2.24119 13.2128 2.1712 13.3636C2.11481 13.4876 2.06241 13.6128 2.01319 13.7412C1.956 13.8976 1.80638 14.0008 1.63997 13.9992H1.2C0.537188 13.9992 0 14.5364 0 15.1992V16.7992C0 17.462 0.537188 17.9992 1.2 17.9992H1.64002C1.80562 17.9988 1.95361 18.102 2.01042 18.2576C2.05922 18.3856 2.11162 18.5108 2.16802 18.6348C2.238 18.7856 2.20603 18.964 2.088 19.0812L1.77441 19.3952C1.30842 19.8645 1.30842 20.6216 1.77441 21.0908L2.9048 22.2212C3.37402 22.6876 4.13161 22.6876 4.60078 22.2212L4.91437 21.908C5.03156 21.7904 5.20997 21.7584 5.36077 21.828C5.48475 21.8844 5.60995 21.9368 5.73834 21.988C5.89556 22.0436 6.00033 22.1924 5.99995 22.3592V22.7992C5.99995 23.462 6.53714 23.9992 7.19995 23.9992H8.79994C9.46275 23.9992 9.99994 23.462 9.99994 22.7992V22.3592C9.99952 22.1936 10.1027 22.0456 10.2584 21.9888C10.3864 21.94 10.5116 21.8876 10.6356 21.8312C10.7864 21.7616 10.9648 21.7936 11.082 21.9112L11.396 22.2248C11.8656 22.69 12.6228 22.6892 13.0916 22.2228L14.222 21.0924C14.6884 20.6232 14.6884 19.8656 14.222 19.3964L13.9088 19.0828C13.7908 18.9656 13.7587 18.7872 13.8287 18.6364C13.8851 18.5124 13.9375 18.3872 13.9887 18.2588C14.0451 18.1024 14.1939 17.9988 14.3599 17.9993H14.7999C15.4627 17.9993 15.9999 17.4621 15.9999 16.7993V15.1993C16 14.5364 15.4628 13.9992 14.8 13.9992ZM15.2 16.7992C15.2 17.02 15.0208 17.1992 14.8 17.1992H14.36C13.8628 17.2012 13.4176 17.5084 13.24 17.9728C13.1976 18.0848 13.1516 18.1952 13.1025 18.3036C12.8969 18.7575 12.9921 19.2912 13.3425 19.646L13.6553 19.9592C13.8117 20.1152 13.8117 20.3684 13.6557 20.5248L13.6553 20.5252L12.5249 21.6556C12.3689 21.8116 12.1156 21.8116 11.9593 21.6556L11.6457 21.3424C11.2912 20.992 10.7572 20.8964 10.3033 21.1024C10.1948 21.1516 10.0845 21.1976 9.97327 21.24C9.50925 21.4176 9.20208 21.8624 9.20006 22.3591V22.7992C9.20006 23.0199 9.02086 23.1991 8.80008 23.1991H7.2C6.97922 23.1991 6.80002 23.0199 6.80002 22.7992V22.3591C6.798 21.8619 6.49083 21.4167 6.02644 21.2392C5.91445 21.1967 5.80402 21.1507 5.69564 21.1016C5.24166 20.896 4.70803 20.9916 4.35323 21.3416L4.04002 21.6544C3.88402 21.8108 3.6308 21.8108 3.47442 21.6548L3.474 21.6544L2.34361 20.5252C2.18761 20.3692 2.18761 20.1156 2.34361 19.9596L2.65683 19.646C3.00722 19.2912 3.10242 18.7575 2.89683 18.3036C2.84761 18.1951 2.80163 18.0848 2.75925 17.9736C2.58206 17.5092 2.13727 17.2012 1.64006 17.1991H1.2C0.979219 17.1991 0.800016 17.0199 0.800016 16.7992V15.1992C0.800016 14.9784 0.979219 14.7992 1.2 14.7992H1.64002C2.13722 14.7972 2.58244 14.49 2.76 14.0256C2.80242 13.9136 2.84841 13.8032 2.89758 13.6948C3.10317 13.2408 3.00797 12.7072 2.65758 12.3524L2.34319 12.0392C2.18677 11.8832 2.18677 11.63 2.34277 11.4736L2.34319 11.4732L3.47358 10.3428C3.63 10.1868 3.8828 10.1868 4.03917 10.3428L4.35277 10.656C4.70719 11.0064 5.24119 11.102 5.69517 10.896C5.80359 10.8468 5.91398 10.8008 6.02517 10.7584C6.48998 10.5812 6.79758 10.1364 6.79997 9.63924V9.19922C6.79997 8.97844 6.97917 8.79924 7.19995 8.79924H8.79994C9.02072 8.79924 9.19992 8.97844 9.19992 9.19922V9.63924C9.20194 10.1364 9.50911 10.5817 9.9735 10.7592C10.0855 10.8016 10.1959 10.8476 10.3043 10.8968C10.7583 11.1028 11.2923 11.0072 11.6467 10.6568L11.9599 10.344C12.1167 10.1888 12.3691 10.1888 12.5259 10.344L13.6563 11.4744C13.8123 11.6304 13.8123 11.884 13.6563 12.04L13.3431 12.3536C12.9927 12.7084 12.8975 13.242 13.1031 13.696C13.1523 13.8044 13.1983 13.9148 13.2407 14.026C13.4183 14.49 13.8631 14.7972 14.3599 14.7992H14.7999C15.0207 14.7992 15.1999 14.9784 15.1999 15.1992V16.7992H15.2Z" fill="#231F20"/>
<path d="M11.5907 15.8407C11.5867 15.7447 11.5799 15.6491 11.5683 15.5539C11.5555 15.4515 11.5403 15.3499 11.5191 15.2503C11.505 15.1851 11.4867 15.1207 11.469 15.0559C11.4466 14.9735 11.4215 14.8923 11.3934 14.8123C11.3738 14.7567 11.3534 14.7015 11.3326 14.6467C11.281 14.5186 11.2222 14.3934 11.1562 14.2723C11.151 14.2631 11.1479 14.2531 11.1427 14.2439C11.0386 14.0587 10.9183 13.8831 10.7826 13.7195C10.7711 13.7051 10.7579 13.6915 10.7459 13.6775C10.6906 13.6123 10.6339 13.5491 10.5742 13.4887C10.543 13.4563 10.5103 13.4259 10.4774 13.3947C10.4375 13.3575 10.3974 13.3207 10.3574 13.2855C10.309 13.2435 10.2594 13.2027 10.209 13.1631L10.1435 13.1143C9.52467 12.6507 8.77185 12.4003 7.99865 12.4007C7.95867 12.4007 7.91863 12.4067 7.87865 12.4083C7.79343 12.4107 7.70784 12.4155 7.62187 12.4243C7.57668 12.4291 7.53107 12.4343 7.48588 12.4407C7.35548 12.4579 7.22629 12.4819 7.09827 12.5131C5.17228 13.0107 4.01428 14.9755 4.51185 16.9019C4.83984 18.1711 5.83143 19.1619 7.10104 19.4887C7.10746 19.4887 7.11426 19.4907 7.12106 19.4923C7.25906 19.5267 7.39907 19.5535 7.54026 19.5723C7.63345 19.5839 7.72668 19.5863 7.82024 19.5908C7.88263 19.5939 7.94024 19.6032 8.00545 19.6032C8.11945 19.6032 8.23785 19.5956 8.35865 19.5836C8.37145 19.5836 8.38424 19.58 8.39863 19.5784C8.49585 19.5676 8.59424 19.5532 8.69465 19.5332C8.73463 19.5256 8.77185 19.5156 8.81024 19.5068C8.88065 19.4904 8.95063 19.4732 9.02263 19.452C9.07865 19.4352 9.13303 19.4156 9.18782 19.3964C9.24262 19.3772 9.29943 19.3564 9.35624 19.3348C9.41306 19.3132 9.46063 19.2884 9.51224 19.2644C9.57946 19.2336 9.64626 19.2032 9.71226 19.1672H9.71465C10.0879 18.9672 10.4326 18.7184 10.7399 18.4268C10.8226 18.3492 10.8951 18.2612 10.9543 18.1644C11.2667 17.664 11.4715 17.104 11.5567 16.5204C11.5679 16.4432 11.5778 16.366 11.5838 16.2872C11.5894 16.2148 11.5934 16.1428 11.595 16.0708C11.595 16.048 11.5982 16.0264 11.5982 16.0036C11.5987 15.9471 11.5931 15.8951 11.5907 15.8407ZM7.2959 13.2886C7.52549 13.2307 7.76189 13.201 7.9987 13.2007C8.11312 13.2015 8.22712 13.2091 8.3407 13.2239C8.37112 13.2275 8.40112 13.2331 8.43112 13.2375C8.51751 13.2511 8.6031 13.2683 8.68753 13.2899C8.71513 13.2971 8.74274 13.3035 8.76993 13.3111C8.98274 13.3723 9.18754 13.4587 9.37992 13.5678C9.41071 13.5858 9.44071 13.6046 9.47113 13.6234C9.53432 13.6634 9.59554 13.7034 9.65592 13.749C9.68831 13.7726 9.72112 13.7958 9.75234 13.821C9.83076 13.8838 9.90595 13.9506 9.97753 14.021C10.0059 14.0498 10.0319 14.0814 10.0595 14.1114C10.1055 14.1615 10.1503 14.2126 10.1931 14.2666C10.2227 14.3039 10.2511 14.3423 10.2791 14.3811C10.3191 14.4387 10.3591 14.4987 10.3951 14.5595C10.4152 14.5927 10.4351 14.6251 10.4556 14.6591C10.5072 14.7539 10.5531 14.8519 10.5931 14.9523C10.6091 14.9923 10.6227 15.0323 10.6371 15.0723C10.6632 15.1459 10.6856 15.2203 10.7052 15.2955C10.7151 15.3355 10.7264 15.3711 10.7347 15.4099C10.7579 15.5179 10.7751 15.6275 10.7856 15.7375C10.7879 15.7667 10.7879 15.7963 10.79 15.8255C10.7955 15.9175 10.7972 16.0099 10.7936 16.1027C10.7936 16.1359 10.7908 16.1692 10.7888 16.2019C10.7816 16.2987 10.7692 16.3955 10.7528 16.4927C10.6032 17.3243 10.0868 18.0444 9.3472 18.4527C9.2976 18.4787 9.24881 18.5031 9.20001 18.5255L9.16682 18.5415C8.93442 18.6471 8.68921 18.7211 8.43721 18.7623C8.41963 18.7651 8.40163 18.7683 8.38363 18.7707C8.33362 18.7779 8.28445 18.7839 8.23565 18.7883C8.17124 18.7938 8.10646 18.7971 8.04046 18.7982C8.01248 18.7982 7.98487 18.7982 7.95688 18.7982C7.8621 18.797 7.7677 18.7914 7.67367 18.7807L7.62567 18.7751C7.51565 18.7607 7.40648 18.7403 7.29885 18.7135C5.80087 18.3299 4.89726 16.8047 5.28046 15.3067C5.53368 14.3167 6.30646 13.5435 7.29604 13.2891L7.2959 13.2886Z" fill="#231F20"/>
<path d="M22.8017 8.4H21.5437C21.3761 8.40159 21.2257 8.29598 21.1709 8.13759C21.0469 7.76602 20.8969 7.40358 20.7217 7.05319C20.6473 6.90197 20.6785 6.72 20.7985 6.60159L21.6904 5.70839C22.1584 5.23997 22.1584 4.48041 21.6904 4.01198L19.9896 2.31398C19.5212 1.84598 18.7616 1.84598 18.2932 2.31398L17.4017 3.20522C17.2837 3.32522 17.1017 3.35644 16.9504 3.28242C16.6 3.10641 16.2377 2.95561 15.8657 2.83083C15.7065 2.77641 15.6001 2.62603 15.6017 2.45803V1.2C15.6017 0.537187 15.0645 0 14.4017 0H12.0017C11.3388 0 10.8017 0.537187 10.8017 1.2V2.45798C10.8032 2.62556 10.6976 2.77598 10.5392 2.83078C10.1677 2.95556 9.80523 3.10636 9.45484 3.282C9.30362 3.35639 9.12123 3.32559 9.00325 3.20522L8.11005 2.31323C7.64083 1.84645 6.88286 1.84645 6.41364 2.31323L4.71606 4.01081C4.24764 4.47923 4.24764 5.23922 4.71606 5.70759L6.02767 7.02159C6.18648 7.1752 6.43966 7.17117 6.59327 7.01278C6.74327 6.858 6.74369 6.61237 6.59406 6.4568L5.28166 5.14322C5.12566 4.9868 5.12566 4.734 5.28166 4.57762L6.97923 2.88005C7.13523 2.72405 7.38883 2.72405 7.54483 2.88005L8.43841 3.77203C8.8 4.13564 9.35401 4.22681 9.81283 3.99764C10.1296 3.83883 10.4572 3.70284 10.7932 3.59006C11.278 3.42605 11.6036 2.97005 11.6016 2.45808V1.2C11.6016 0.979219 11.7808 0.800016 12.0016 0.800016H14.4016C14.6224 0.800016 14.8016 0.979219 14.8016 1.2V2.45798C14.7996 2.97 15.1252 3.42558 15.61 3.58959C15.946 3.70237 16.274 3.83878 16.5908 3.99759C17.0496 4.22559 17.6028 4.13437 17.9648 3.77161L18.8584 2.88C19.0144 2.724 19.268 2.724 19.424 2.88L21.1216 4.578C21.2776 4.734 21.2776 4.98722 21.1216 5.14322L20.2296 6.0368C19.8664 6.39839 19.7752 6.95241 20.004 7.41122C20.1628 7.728 20.2988 8.05561 20.4115 8.39161C20.5756 8.87639 21.0316 9.2024 21.5435 9.20002H22.8017C23.0224 9.20002 23.2016 9.37922 23.2016 9.6V12C23.2016 12.2208 23.0224 12.4 22.8017 12.4H21.5437C21.0317 12.398 20.5761 12.7236 20.4121 13.2084C20.2993 13.5444 20.1629 13.8724 20.0041 14.1892C19.7756 14.648 19.8669 15.2016 20.23 15.5632L21.122 16.4568C21.278 16.6128 21.278 16.8664 21.122 17.0224L19.4236 18.72C19.2676 18.876 19.0144 18.876 18.8584 18.72L17.544 17.4083C17.3904 17.2495 17.1372 17.2455 16.9784 17.3992C16.8196 17.5528 16.8156 17.8059 16.9692 17.9647C16.9724 17.9679 16.9756 17.9712 16.9792 17.9744L18.2932 19.286C18.7616 19.754 19.5212 19.754 19.9896 19.286L21.6872 17.5888C22.1556 17.12 22.1556 16.3608 21.6872 15.892L20.7964 15C20.6764 14.882 20.6452 14.7 20.7192 14.5488C20.8952 14.1984 21.046 13.836 21.1708 13.464C21.2252 13.3048 21.3756 13.1984 21.5436 13.2H22.8017C23.4645 13.2 24.0017 12.6628 24.0017 12V9.6C24.0017 8.93719 23.4645 8.4 22.8017 8.4Z" fill="#231F20"/>
<path d="M16.8742 7.12266C14.8422 5.09508 11.5526 5.09508 9.52057 7.12266C9.36696 7.28147 9.37137 7.53464 9.53056 7.68825C9.68576 7.83783 9.93134 7.83783 10.0862 7.68825C11.793 5.95866 14.5789 5.93986 16.3086 7.64667C18.0382 9.35348 18.057 12.1395 16.3502 13.8691C16.3361 13.8831 16.3226 13.8971 16.3086 13.9107C16.1498 14.0643 16.1454 14.3175 16.299 14.4763C16.4526 14.6351 16.7058 14.6395 16.8646 14.4859C16.8678 14.4827 16.871 14.4795 16.8742 14.4763C18.9018 12.4442 18.9018 9.15464 16.8742 7.12266Z" fill="#231F20"/>
</g>
<defs>
<clipPath id="clip0">
<rect width="24" height="24" fill="white"/>
</clipPath>
</defs>
</svg>
