<svg width="25" height="25" viewBox="0 0 25 25" fill="none" xmlns="http://www.w3.org/2000/svg">
<g clip-path="url(#clip0)">
<path d="M25 9.37494H20.7548L16.2949 1.94163C16.0737 1.57239 15.5938 1.45183 15.223 1.67385C14.8529 1.89587 14.7332 2.37573 14.9552 2.74577L18.9327 9.37494H6.06736L10.0449 2.74572C10.2669 2.37568 10.1471 1.89582 9.77707 1.6738C9.40551 1.45178 8.92718 1.57234 8.70516 1.94158L4.24522 9.37489H0V10.9374H1.69564L3.68041 21.5247C3.88792 22.6333 4.85685 23.4374 5.98452 23.4374H19.0155C20.1432 23.4374 21.1121 22.6333 21.3188 21.5255L23.3043 10.9374H25.0001L25 9.37494ZM19.783 21.2379C19.7144 21.6071 19.3916 21.875 19.0155 21.875H5.98452C5.60838 21.875 5.28569 21.6072 5.21626 21.2372L3.28487 10.9374H21.7152L19.783 21.2379Z" fill="black"/>
<path d="M3.125 10.625H21.875L20 21.875H5L3.125 10.625Z" fill="#ABC32F"/>
</g>
<defs>
<clipPath id="clip0">
<rect width="25" height="25" fill="white"/>
</clipPath>
</defs>
</svg>
